<svg xmlns="http://www.w3.org/2000/svg" viewBox="0 0 256 256">
  <defs>
    <linearGradient id="grad1" x1="0%" y1="0%" x2="100%" y2="100%">
      <stop offset="0%" style="stop-color:#6366f1;stop-opacity:1" />
      <stop offset="100%" style="stop-color:#a855f7;stop-opacity:1" />
    </linearGradient>
  </defs>
  <rect width="256" height="256" fill="url(#grad1)" rx="56"/>
  <rect x="48" y="64" width="160" height="144" rx="12" fill="white" opacity="0.95"/>
  <rect x="48" y="64" width="160" height="36" rx="12" fill="url(#grad1)"/>
  <circle cx="76" cy="82" r="6" fill="white"/>
  <circle cx="96" cy="82" r="6" fill="white"/>
  <rect x="68" y="120" width="36" height="36" rx="6" fill="#6366f1" opacity="0.3"/>
  <rect x="110" y="120" width="36" height="36" rx="6" fill="#8b5cf6" opacity="0.5"/>
  <rect x="152" y="120" width="36" height="36" rx="6" fill="#a855f7" opacity="0.7"/>
  <path d="M 80 132 L 88 140 L 100 128" stroke="white" stroke-width="3" fill="none" stroke-linecap="round" stroke-linejoin="round"/>
  <circle cx="128" cy="138" r="8" fill="white"/>
  <path d="M 164 132 L 176 132 M 170 126 L 170 138" stroke="white" stroke-width="3" stroke-linecap="round"/>
  <rect x="68" y="168" width="120" height="8" rx="4" fill="#6366f1" opacity="0.3"/>
  <rect x="68" y="184" width="80" height="8" rx="4" fill="#8b5cf6" opacity="0.3"/>
</svg>